<svg width="1200" height="630" viewBox="0 0 1200 630" fill="none" xmlns="http://www.w3.org/2000/svg">
<g clip-path="url(#clip0_40000015_3296)">
<path d="M1200 0H0V630H1200V0Z" fill="url(#paint0_linear_40000015_3296)"/>
<path d="M14 0H0V630H14V0Z" fill="#1D4ED8"/>
<path d="M89.4886 159.364C89.3352 158.068 88.7131 157.062 87.6222 156.347C86.5313 155.631 85.1932 155.273 83.608 155.273C82.4489 155.273 81.4347 155.46 80.5653 155.835C79.7045 156.21 79.0313 156.726 78.5455 157.382C78.0682 158.038 77.8295 158.784 77.8295 159.619C77.8295 160.318 77.9957 160.919 78.3281 161.422C78.669 161.916 79.1037 162.33 79.6321 162.662C80.1605 162.986 80.7145 163.254 81.294 163.467C81.8736 163.672 82.4062 163.838 82.892 163.966L85.5511 164.682C86.233 164.861 86.9915 165.108 87.8267 165.423C88.6705 165.739 89.4759 166.169 90.2429 166.714C91.0185 167.251 91.6577 167.942 92.1605 168.786C92.6634 169.629 92.9148 170.665 92.9148 171.892C92.9148 173.307 92.544 174.585 91.8026 175.727C91.0696 176.869 89.9957 177.777 88.581 178.45C87.1747 179.124 85.4659 179.46 83.4545 179.46C81.5795 179.46 79.956 179.158 78.5838 178.553C77.2202 177.947 76.1463 177.104 75.3622 176.021C74.5866 174.939 74.1477 173.682 74.0455 172.25H77.3182C77.4034 173.239 77.7358 174.057 78.3153 174.705C78.9034 175.344 79.6449 175.821 80.5398 176.136C81.4432 176.443 82.4148 176.597 83.4545 176.597C84.6648 176.597 85.7514 176.401 86.7145 176.009C87.6776 175.608 88.4403 175.054 89.0028 174.347C89.5653 173.631 89.8466 172.795 89.8466 171.841C89.8466 170.972 89.6037 170.264 89.1179 169.719C88.6321 169.173 87.9929 168.73 87.2003 168.389C86.4077 168.048 85.5511 167.75 84.6307 167.494L81.4091 166.574C79.3636 165.986 77.7443 165.146 76.5511 164.055C75.358 162.964 74.7614 161.537 74.7614 159.773C74.7614 158.307 75.1577 157.028 75.9503 155.938C76.7514 154.838 77.8253 153.986 79.1719 153.381C80.527 152.767 82.0398 152.46 83.7102 152.46C85.3977 152.46 86.8977 152.763 88.2102 153.368C89.5227 153.964 90.5625 154.783 91.3295 155.822C92.1051 156.862 92.5142 158.043 92.5568 159.364H89.4886ZM98.1275 179V152.818H113.929V155.631H101.298V164.477H113.11V167.29H101.298V176.188H114.133V179H98.1275ZM140.404 152.818V179H137.336L123.069 158.443H122.814V179H119.643V152.818H122.711L137.029 173.426H137.285V152.818H140.404ZM149.919 152.818V179H146.749V152.818H149.919ZM178.367 165.909C178.367 168.67 177.868 171.057 176.871 173.068C175.874 175.08 174.506 176.631 172.767 177.722C171.029 178.812 169.043 179.358 166.81 179.358C164.577 179.358 162.591 178.812 160.853 177.722C159.114 176.631 157.746 175.08 156.749 173.068C155.752 171.057 155.253 168.67 155.253 165.909C155.253 163.148 155.752 160.761 156.749 158.75C157.746 156.739 159.114 155.188 160.853 154.097C162.591 153.006 164.577 152.46 166.81 152.46C169.043 152.46 171.029 153.006 172.767 154.097C174.506 155.188 175.874 156.739 176.871 158.75C177.868 160.761 178.367 163.148 178.367 165.909ZM175.299 165.909C175.299 163.642 174.919 161.729 174.161 160.169C173.411 158.609 172.392 157.429 171.105 156.628C169.827 155.827 168.395 155.426 166.81 155.426C165.225 155.426 163.789 155.827 162.502 156.628C161.223 157.429 160.205 158.609 159.446 160.169C158.696 161.729 158.321 163.642 158.321 165.909C158.321 168.176 158.696 170.089 159.446 171.649C160.205 173.209 161.223 174.389 162.502 175.19C163.789 175.991 165.225 176.392 166.81 176.392C168.395 176.392 169.827 175.991 171.105 175.19C172.392 174.389 173.411 173.209 174.161 171.649C174.919 170.089 175.299 168.176 175.299 165.909ZM183.698 179V152.818H192.544C194.59 152.818 196.269 153.168 197.581 153.866C198.894 154.557 199.865 155.507 200.496 156.717C201.127 157.928 201.442 159.304 201.442 160.847C201.442 162.389 201.127 163.757 200.496 164.95C199.865 166.143 198.898 167.081 197.594 167.763C196.29 168.436 194.624 168.773 192.596 168.773H185.436V165.909H192.493C193.891 165.909 195.016 165.705 195.868 165.295C196.729 164.886 197.351 164.307 197.735 163.557C198.127 162.798 198.323 161.895 198.323 160.847C198.323 159.798 198.127 158.882 197.735 158.098C197.343 157.314 196.716 156.709 195.855 156.283C194.995 155.848 193.857 155.631 192.442 155.631H186.868V179H183.698ZM196.022 167.239L202.465 179H198.783L192.442 167.239H196.022ZM216.85 179V152.818H225.697C227.751 152.818 229.43 153.189 230.734 153.93C232.046 154.663 233.018 155.656 233.648 156.909C234.279 158.162 234.594 159.56 234.594 161.102C234.594 162.645 234.279 164.047 233.648 165.308C233.026 166.57 232.063 167.575 230.759 168.325C229.455 169.067 227.785 169.438 225.748 169.438H219.407V166.625H225.646C227.052 166.625 228.181 166.382 229.033 165.896C229.886 165.411 230.504 164.754 230.887 163.928C231.279 163.092 231.475 162.151 231.475 161.102C231.475 160.054 231.279 159.116 230.887 158.29C230.504 157.463 229.881 156.815 229.021 156.347C228.16 155.869 227.018 155.631 225.594 155.631H220.021V179H216.85ZM239.702 179V152.818H248.548C250.594 152.818 252.273 153.168 253.585 153.866C254.898 154.557 255.869 155.507 256.5 156.717C257.131 157.928 257.446 159.304 257.446 160.847C257.446 162.389 257.131 163.757 256.5 164.95C255.869 166.143 254.902 167.081 253.598 167.763C252.294 168.436 250.628 168.773 248.599 168.773H241.44V165.909H248.497C249.895 165.909 251.02 165.705 251.872 165.295C252.733 164.886 253.355 164.307 253.739 163.557C254.131 162.798 254.327 161.895 254.327 160.847C254.327 159.798 254.131 158.882 253.739 158.098C253.347 157.314 252.72 156.709 251.859 156.283C250.999 155.848 249.861 155.631 248.446 155.631H242.872V179H239.702ZM252.026 167.239L258.469 179H254.787L248.446 167.239H252.026ZM284.82 165.909C284.82 168.67 284.321 171.057 283.324 173.068C282.327 175.08 280.959 176.631 279.221 177.722C277.482 178.812 275.496 179.358 273.263 179.358C271.03 179.358 269.044 178.812 267.306 177.722C265.567 176.631 264.199 175.08 263.202 173.068C262.205 171.057 261.706 168.67 261.706 165.909C261.706 163.148 262.205 160.761 263.202 158.75C264.199 156.739 265.567 155.188 267.306 154.097C269.044 153.006 271.03 152.46 273.263 152.46C275.496 152.46 277.482 153.006 279.221 154.097C280.959 155.188 282.327 156.739 283.324 158.75C284.321 160.761 284.82 163.148 284.82 165.909ZM281.752 165.909C281.752 163.642 281.373 161.729 280.614 160.169C279.864 158.609 278.846 157.429 277.559 156.628C276.28 155.827 274.848 155.426 273.263 155.426C271.678 155.426 270.242 155.827 268.955 156.628C267.676 157.429 266.658 158.609 265.9 160.169C265.15 161.729 264.775 163.642 264.775 165.909C264.775 168.176 265.15 170.089 265.9 171.649C266.658 173.209 267.676 174.389 268.955 175.19C270.242 175.991 271.678 176.392 273.263 176.392C274.848 176.392 276.28 175.991 277.559 175.19C278.846 174.389 279.864 173.209 280.614 171.649C281.373 170.089 281.752 168.176 281.752 165.909ZM298.23 179H290.151V152.818H298.588C301.128 152.818 303.301 153.342 305.108 154.391C306.915 155.43 308.3 156.926 309.263 158.878C310.226 160.821 310.708 163.148 310.708 165.858C310.708 168.585 310.222 170.933 309.25 172.902C308.279 174.862 306.864 176.371 305.006 177.428C303.148 178.476 300.89 179 298.23 179ZM293.321 176.188H298.026C300.191 176.188 301.985 175.77 303.408 174.935C304.831 174.099 305.892 172.911 306.591 171.368C307.29 169.825 307.64 167.989 307.64 165.858C307.64 163.744 307.294 161.925 306.604 160.399C305.914 158.865 304.882 157.689 303.51 156.871C302.138 156.044 300.429 155.631 298.384 155.631H293.321V176.188ZM333.208 152.818H336.378V170.153C336.378 171.943 335.956 173.541 335.113 174.947C334.277 176.345 333.097 177.449 331.571 178.259C330.046 179.06 328.256 179.46 326.202 179.46C324.148 179.46 322.358 179.06 320.833 178.259C319.307 177.449 318.123 176.345 317.279 174.947C316.444 173.541 316.026 171.943 316.026 170.153V152.818H319.196V169.898C319.196 171.176 319.478 172.314 320.04 173.311C320.603 174.3 321.404 175.08 322.444 175.651C323.492 176.213 324.745 176.494 326.202 176.494C327.659 176.494 328.912 176.213 329.961 175.651C331.009 175.08 331.81 174.3 332.364 173.311C332.926 172.314 333.208 171.176 333.208 169.898V152.818ZM363.778 161H360.607C360.42 160.088 360.092 159.287 359.623 158.597C359.163 157.906 358.6 157.327 357.935 156.858C357.279 156.381 356.55 156.023 355.749 155.784C354.948 155.545 354.113 155.426 353.244 155.426C351.658 155.426 350.222 155.827 348.935 156.628C347.657 157.429 346.638 158.609 345.88 160.169C345.13 161.729 344.755 163.642 344.755 165.909C344.755 168.176 345.13 170.089 345.88 171.649C346.638 173.209 347.657 174.389 348.935 175.19C350.222 175.991 351.658 176.392 353.244 176.392C354.113 176.392 354.948 176.273 355.749 176.034C356.55 175.795 357.279 175.442 357.935 174.973C358.6 174.496 359.163 173.912 359.623 173.222C360.092 172.523 360.42 171.722 360.607 170.818H363.778C363.539 172.156 363.104 173.354 362.474 174.411C361.843 175.467 361.059 176.366 360.121 177.108C359.184 177.841 358.131 178.399 356.964 178.783C355.805 179.166 354.565 179.358 353.244 179.358C351.011 179.358 349.025 178.812 347.286 177.722C345.548 176.631 344.18 175.08 343.183 173.068C342.185 171.057 341.687 168.67 341.687 165.909C341.687 163.148 342.185 160.761 343.183 158.75C344.18 156.739 345.548 155.188 347.286 154.097C349.025 153.006 351.011 152.46 353.244 152.46C354.565 152.46 355.805 152.652 356.964 153.036C358.131 153.419 359.184 153.982 360.121 154.723C361.059 155.456 361.843 156.351 362.474 157.408C363.104 158.456 363.539 159.653 363.778 161ZM367.469 155.631V152.818H387.105V155.631H378.873V179H375.702V155.631H367.469ZM410.203 179H402.124V152.818H410.561C413.101 152.818 415.274 153.342 417.081 154.391C418.888 155.43 420.273 156.926 421.236 158.878C422.199 160.821 422.68 163.148 422.68 165.858C422.68 168.585 422.195 170.933 421.223 172.902C420.251 174.862 418.837 176.371 416.979 177.428C415.121 178.476 412.862 179 410.203 179ZM405.294 176.188H409.999C412.163 176.188 413.957 175.77 415.381 174.935C416.804 174.099 417.865 172.911 418.564 171.368C419.263 169.825 419.612 167.989 419.612 165.858C419.612 163.744 419.267 161.925 418.577 160.399C417.886 158.865 416.855 157.689 415.483 156.871C414.111 156.044 412.402 155.631 410.357 155.631H405.294V176.188ZM427.999 179V152.818H443.8V155.631H431.169V164.477H442.982V167.29H431.169V176.188H444.004V179H427.999ZM463.832 159.364C463.679 158.068 463.057 157.062 461.966 156.347C460.875 155.631 459.537 155.273 457.952 155.273C456.793 155.273 455.778 155.46 454.909 155.835C454.048 156.21 453.375 156.726 452.889 157.382C452.412 158.038 452.173 158.784 452.173 159.619C452.173 160.318 452.339 160.919 452.672 161.422C453.013 161.916 453.447 162.33 453.976 162.662C454.504 162.986 455.058 163.254 455.638 163.467C456.217 163.672 456.75 163.838 457.236 163.966L459.895 164.682C460.577 164.861 461.335 165.108 462.17 165.423C463.014 165.739 463.82 166.169 464.587 166.714C465.362 167.251 466.001 167.942 466.504 168.786C467.007 169.629 467.259 170.665 467.259 171.892C467.259 173.307 466.888 174.585 466.146 175.727C465.413 176.869 464.339 177.777 462.925 178.45C461.518 179.124 459.81 179.46 457.798 179.46C455.923 179.46 454.3 179.158 452.928 178.553C451.564 177.947 450.49 177.104 449.706 176.021C448.93 174.939 448.491 173.682 448.389 172.25H451.662C451.747 173.239 452.08 174.057 452.659 174.705C453.247 175.344 453.989 175.821 454.884 176.136C455.787 176.443 456.759 176.597 457.798 176.597C459.009 176.597 460.095 176.401 461.058 176.009C462.021 175.608 462.784 175.054 463.347 174.347C463.909 173.631 464.19 172.795 464.19 171.841C464.19 170.972 463.947 170.264 463.462 169.719C462.976 169.173 462.337 168.73 461.544 168.389C460.751 168.048 459.895 167.75 458.974 167.494L455.753 166.574C453.707 165.986 452.088 165.146 450.895 164.055C449.702 162.964 449.105 161.537 449.105 159.773C449.105 158.307 449.501 157.028 450.294 155.938C451.095 154.838 452.169 153.986 453.516 153.381C454.871 152.767 456.384 152.46 458.054 152.46C459.741 152.46 461.241 152.763 462.554 153.368C463.866 153.964 464.906 154.783 465.673 155.822C466.449 156.862 466.858 158.043 466.901 159.364H463.832ZM475.642 152.818V179H472.471V152.818H475.642ZM499.896 161C499.615 160.139 499.244 159.368 498.784 158.686C498.332 157.996 497.791 157.408 497.161 156.922C496.538 156.436 495.831 156.065 495.038 155.81C494.246 155.554 493.376 155.426 492.43 155.426C490.879 155.426 489.469 155.827 488.199 156.628C486.929 157.429 485.919 158.609 485.169 160.169C484.419 161.729 484.044 163.642 484.044 165.909C484.044 168.176 484.423 170.089 485.182 171.649C485.94 173.209 486.967 174.389 488.263 175.19C489.558 175.991 491.016 176.392 492.635 176.392C494.135 176.392 495.456 176.072 496.598 175.433C497.749 174.786 498.643 173.874 499.283 172.697C499.93 171.513 500.254 170.119 500.254 168.517L501.226 168.722H493.351V165.909H503.322V168.722C503.322 170.878 502.862 172.753 501.942 174.347C501.03 175.94 499.768 177.176 498.158 178.054C496.555 178.923 494.714 179.358 492.635 179.358C490.317 179.358 488.28 178.812 486.524 177.722C484.777 176.631 483.413 175.08 482.433 173.068C481.462 171.057 480.976 168.67 480.976 165.909C480.976 163.838 481.253 161.976 481.807 160.322C482.369 158.661 483.162 157.246 484.185 156.078C485.207 154.911 486.418 154.016 487.815 153.393C489.213 152.771 490.751 152.46 492.43 152.46C493.811 152.46 495.098 152.669 496.291 153.087C497.493 153.496 498.562 154.08 499.5 154.838C500.446 155.588 501.234 156.487 501.865 157.536C502.496 158.575 502.93 159.73 503.169 161H499.896ZM529.514 152.818V179H526.446L512.179 158.443H511.923V179H508.752V152.818H511.821L526.139 173.426H526.395V152.818H529.514ZM535.858 179V152.818H551.659V155.631H539.028V164.477H550.841V167.29H539.028V176.188H551.864V179H535.858ZM557.374 179V152.818H566.22C568.266 152.818 569.945 153.168 571.257 153.866C572.57 154.557 573.541 155.507 574.172 156.717C574.803 157.928 575.118 159.304 575.118 160.847C575.118 162.389 574.803 163.757 574.172 164.95C573.541 166.143 572.574 167.081 571.27 167.763C569.966 168.436 568.3 168.773 566.271 168.773H559.112V165.909H566.169C567.567 165.909 568.692 165.705 569.544 165.295C570.405 164.886 571.027 164.307 571.411 163.557C571.803 162.798 571.999 161.895 571.999 160.847C571.999 159.798 571.803 158.882 571.411 158.098C571.018 157.314 570.392 156.709 569.531 156.283C568.67 155.848 567.533 155.631 566.118 155.631H560.544V179H557.374ZM569.697 167.239L576.141 179H572.459L566.118 167.239H569.697Z" fill="#6B6B6B"/>
<path d="M77.3097 216.909H93.2386L110.062 257.955H110.778L127.602 216.909H143.531V278H131.003V238.237H130.496L114.686 277.702H106.155L90.3452 238.088H89.8381V278H77.3097V216.909ZM167 278.865C164.076 278.865 161.471 278.358 159.184 277.344C156.897 276.31 155.088 274.788 153.755 272.78C152.443 270.751 151.787 268.226 151.787 265.203C151.787 262.658 152.254 260.52 153.189 258.79C154.123 257.06 155.396 255.668 157.007 254.614C158.618 253.56 160.447 252.764 162.495 252.227C164.564 251.69 166.731 251.312 168.998 251.094C171.663 250.815 173.811 250.557 175.441 250.318C177.072 250.06 178.255 249.682 178.991 249.185C179.727 248.687 180.095 247.952 180.095 246.977V246.798C180.095 244.909 179.498 243.447 178.305 242.413C177.132 241.379 175.461 240.862 173.294 240.862C171.007 240.862 169.187 241.369 167.835 242.384C166.483 243.378 165.588 244.631 165.15 246.142L153.397 245.188C153.994 242.403 155.167 239.997 156.917 237.969C158.667 235.92 160.924 234.349 163.689 233.256C166.473 232.142 169.694 231.585 173.353 231.585C175.899 231.585 178.335 231.884 180.662 232.48C183.008 233.077 185.086 234.001 186.896 235.254C188.725 236.507 190.167 238.118 191.221 240.087C192.275 242.036 192.802 244.372 192.802 247.097V278H180.751V271.646H180.393C179.657 273.078 178.673 274.341 177.44 275.435C176.207 276.509 174.725 277.354 172.995 277.97C171.265 278.567 169.267 278.865 167 278.865ZM170.639 270.095C172.508 270.095 174.159 269.727 175.591 268.991C177.022 268.236 178.146 267.222 178.961 265.949C179.777 264.676 180.184 263.234 180.184 261.624V256.761C179.787 257.02 179.24 257.259 178.544 257.477C177.868 257.676 177.102 257.865 176.247 258.044C175.392 258.203 174.537 258.352 173.681 258.491C172.826 258.611 172.051 258.72 171.355 258.82C169.863 259.038 168.561 259.386 167.447 259.864C166.333 260.341 165.468 260.987 164.852 261.803C164.235 262.598 163.927 263.592 163.927 264.786C163.927 266.516 164.554 267.838 165.806 268.753C167.079 269.648 168.69 270.095 170.639 270.095ZM202.661 278V232.182H214.98V240.176H215.458C216.293 237.332 217.695 235.185 219.664 233.733C221.632 232.261 223.9 231.526 226.465 231.526C227.101 231.526 227.787 231.565 228.523 231.645C229.259 231.724 229.905 231.834 230.462 231.973V243.249C229.865 243.07 229.04 242.911 227.986 242.771C226.932 242.632 225.968 242.562 225.093 242.562C223.223 242.562 221.553 242.97 220.081 243.786C218.63 244.581 217.476 245.695 216.621 247.126C215.786 248.558 215.368 250.209 215.368 252.078V278H202.661ZM255.601 278.895C250.908 278.895 246.871 277.901 243.49 275.912C240.129 273.903 237.544 271.119 235.734 267.56C233.945 264 233.05 259.903 233.05 255.27C233.05 250.577 233.955 246.46 235.764 242.92C237.594 239.361 240.189 236.587 243.55 234.598C246.911 232.589 250.908 231.585 255.541 231.585C259.538 231.585 263.038 232.311 266.041 233.763C269.044 235.214 271.42 237.253 273.17 239.878C274.92 242.503 275.885 245.585 276.064 249.125H264.072C263.734 246.838 262.839 244.999 261.388 243.607C259.956 242.195 258.077 241.489 255.75 241.489C253.781 241.489 252.061 242.026 250.589 243.099C249.138 244.153 248.004 245.695 247.189 247.723C246.374 249.751 245.966 252.207 245.966 255.091C245.966 258.014 246.364 260.5 247.159 262.548C247.974 264.597 249.118 266.158 250.589 267.232C252.061 268.305 253.781 268.842 255.75 268.842C257.202 268.842 258.504 268.544 259.658 267.947C260.831 267.351 261.795 266.486 262.551 265.352C263.327 264.199 263.834 262.817 264.072 261.206H276.064C275.865 264.706 274.911 267.788 273.2 270.453C271.51 273.098 269.173 275.166 266.19 276.658C263.207 278.149 259.678 278.895 255.601 278.895ZM305.081 278.895C300.368 278.895 296.311 277.94 292.91 276.031C289.529 274.102 286.924 271.378 285.095 267.858C283.265 264.318 282.35 260.132 282.35 255.3C282.35 250.587 283.265 246.45 285.095 242.891C286.924 239.331 289.5 236.557 292.821 234.568C296.162 232.58 300.079 231.585 304.574 231.585C307.596 231.585 310.41 232.072 313.015 233.047C315.64 234.001 317.927 235.443 319.876 237.372C321.845 239.301 323.376 241.727 324.47 244.651C325.564 247.554 326.11 250.955 326.11 254.852V258.342H287.422V250.467H314.149C314.149 248.638 313.751 247.017 312.956 245.605C312.16 244.193 311.056 243.089 309.645 242.294C308.252 241.479 306.632 241.071 304.782 241.071C302.853 241.071 301.143 241.518 299.652 242.413C298.18 243.288 297.027 244.472 296.191 245.963C295.356 247.435 294.929 249.075 294.909 250.885V258.372C294.909 260.639 295.326 262.598 296.162 264.249C297.017 265.899 298.22 267.172 299.771 268.067C301.322 268.962 303.162 269.409 305.289 269.409C306.701 269.409 307.994 269.21 309.167 268.812C310.341 268.415 311.345 267.818 312.18 267.023C313.015 266.227 313.652 265.253 314.089 264.099L325.842 264.875C325.245 267.699 324.022 270.165 322.173 272.273C320.343 274.361 317.977 275.991 315.074 277.165C312.19 278.318 308.859 278.895 305.081 278.895ZM347.11 216.909V278H334.403V216.909H347.11ZM377.991 278.895C373.358 278.895 369.351 277.911 365.97 275.942C362.609 273.953 360.014 271.189 358.185 267.649C356.355 264.089 355.44 259.963 355.44 255.27C355.44 250.537 356.355 246.401 358.185 242.861C360.014 239.301 362.609 236.537 365.97 234.568C369.351 232.58 373.358 231.585 377.991 231.585C382.625 231.585 386.622 232.58 389.983 234.568C393.364 236.537 395.969 239.301 397.798 242.861C399.628 246.401 400.543 250.537 400.543 255.27C400.543 259.963 399.628 264.089 397.798 267.649C395.969 271.189 393.364 273.953 389.983 275.942C386.622 277.911 382.625 278.895 377.991 278.895ZM378.051 269.051C380.159 269.051 381.919 268.455 383.331 267.261C384.743 266.048 385.807 264.398 386.523 262.31C387.259 260.222 387.626 257.845 387.626 255.18C387.626 252.516 387.259 250.139 386.523 248.051C385.807 245.963 384.743 244.312 383.331 243.099C381.919 241.886 380.159 241.28 378.051 241.28C375.923 241.28 374.134 241.886 372.682 243.099C371.25 244.312 370.166 245.963 369.43 248.051C368.714 250.139 368.357 252.516 368.357 255.18C368.357 257.845 368.714 260.222 369.43 262.31C370.166 264.398 371.25 266.048 372.682 267.261C374.134 268.455 375.923 269.051 378.051 269.051ZM428.485 278V216.909H441.402V267.351H467.592V278H428.485ZM475.907 278V232.182H488.614V278H475.907ZM482.29 226.276C480.401 226.276 478.781 225.649 477.428 224.396C476.096 223.124 475.43 221.602 475.43 219.832C475.43 218.082 476.096 216.581 477.428 215.328C478.781 214.055 480.401 213.419 482.29 213.419C484.18 213.419 485.79 214.055 487.123 215.328C488.475 216.581 489.151 218.082 489.151 219.832C489.151 221.602 488.475 223.124 487.123 224.396C485.79 225.649 484.18 226.276 482.29 226.276ZM519.495 278.895C514.862 278.895 510.855 277.911 507.474 275.942C504.113 273.953 501.518 271.189 499.689 267.649C497.859 264.089 496.944 259.963 496.944 255.27C496.944 250.537 497.859 246.401 499.689 242.861C501.518 239.301 504.113 236.537 507.474 234.568C510.855 232.58 514.862 231.585 519.495 231.585C524.129 231.585 528.126 232.58 531.487 234.568C534.868 236.537 537.473 239.301 539.302 242.861C541.132 246.401 542.047 250.537 542.047 255.27C542.047 259.963 541.132 264.089 539.302 267.649C537.473 271.189 534.868 273.953 531.487 275.942C528.126 277.911 524.129 278.895 519.495 278.895ZM519.555 269.051C521.663 269.051 523.423 268.455 524.835 267.261C526.247 266.048 527.311 264.398 528.027 262.31C528.762 260.222 529.13 257.845 529.13 255.18C529.13 252.516 528.762 250.139 528.027 248.051C527.311 245.963 526.247 244.312 524.835 243.099C523.423 241.886 521.663 241.28 519.555 241.28C517.427 241.28 515.637 241.886 514.186 243.099C512.754 244.312 511.67 245.963 510.934 248.051C510.218 250.139 509.86 252.516 509.86 255.18C509.86 257.845 510.218 260.222 510.934 262.31C511.67 264.398 512.754 266.048 514.186 267.261C515.637 268.455 517.427 269.051 519.555 269.051ZM563.017 251.511V278H550.309V232.182H562.42V240.266H562.957C563.971 237.601 565.672 235.493 568.058 233.942C570.444 232.371 573.338 231.585 576.738 231.585C579.92 231.585 582.694 232.281 585.061 233.673C587.427 235.065 589.267 237.054 590.579 239.639C591.892 242.205 592.548 245.267 592.548 248.827V278H579.841V251.094C579.86 248.29 579.145 246.102 577.693 244.531C576.241 242.94 574.243 242.145 571.697 242.145C569.987 242.145 568.475 242.513 567.163 243.249C565.87 243.984 564.856 245.058 564.12 246.47C563.404 247.862 563.037 249.543 563.017 251.511ZM623.265 278.895C618.572 278.895 614.535 277.901 611.154 275.912C607.793 273.903 605.208 271.119 603.398 267.56C601.609 264 600.714 259.903 600.714 255.27C600.714 250.577 601.619 246.46 603.428 242.92C605.258 239.361 607.853 236.587 611.214 234.598C614.575 232.589 618.572 231.585 623.205 231.585C627.202 231.585 630.702 232.311 633.705 233.763C636.708 235.214 639.085 237.253 640.835 239.878C642.585 242.503 643.549 245.585 643.728 249.125H631.737C631.398 246.838 630.504 244.999 629.052 243.607C627.62 242.195 625.741 241.489 623.414 241.489C621.445 241.489 619.725 242.026 618.254 243.099C616.802 244.153 615.668 245.695 614.853 247.723C614.038 249.751 613.63 252.207 613.63 255.091C613.63 258.014 614.028 260.5 614.823 262.548C615.638 264.597 616.782 266.158 618.254 267.232C619.725 268.305 621.445 268.842 623.414 268.842C624.866 268.842 626.168 268.544 627.322 267.947C628.495 267.351 629.46 266.486 630.215 265.352C630.991 264.199 631.498 262.817 631.737 261.206H643.728C643.529 264.706 642.575 267.788 640.864 270.453C639.174 273.098 636.837 275.166 633.854 276.658C630.871 278.149 627.342 278.895 623.265 278.895ZM620.282 277.761H626.129L625.651 280.357C627.7 280.675 629.37 281.44 630.663 282.653C631.975 283.866 632.641 285.517 632.661 287.605C632.681 290.568 631.309 292.925 628.545 294.675C625.781 296.445 621.903 297.33 616.911 297.33L616.792 291.662C619.298 291.662 621.256 291.354 622.668 290.737C624.1 290.141 624.846 289.206 624.906 287.933C624.945 286.72 624.478 285.795 623.504 285.159C622.529 284.523 621.008 284.075 618.94 283.817L620.282 277.761ZM672.566 278.895C667.932 278.895 663.925 277.911 660.544 275.942C657.184 273.953 654.588 271.189 652.759 267.649C650.929 264.089 650.015 259.963 650.015 255.27C650.015 250.537 650.929 246.401 652.759 242.861C654.588 239.301 657.184 236.537 660.544 234.568C663.925 232.58 667.932 231.585 672.566 231.585C677.199 231.585 681.196 232.58 684.557 234.568C687.938 236.537 690.543 239.301 692.373 242.861C694.202 246.401 695.117 250.537 695.117 255.27C695.117 259.963 694.202 264.089 692.373 267.649C690.543 271.189 687.938 273.953 684.557 275.942C681.196 277.911 677.199 278.895 672.566 278.895ZM672.625 269.051C674.733 269.051 676.493 268.455 677.905 267.261C679.317 266.048 680.381 264.398 681.097 262.31C681.833 260.222 682.201 257.845 682.201 255.18C682.201 252.516 681.833 250.139 681.097 248.051C680.381 245.963 679.317 244.312 677.905 243.099C676.493 241.886 674.733 241.28 672.625 241.28C670.498 241.28 668.708 241.886 667.256 243.099C665.824 244.312 664.74 245.963 664.005 248.051C663.289 250.139 662.931 252.516 662.931 255.18C662.931 257.845 663.289 260.222 664.005 262.31C664.74 264.398 665.824 266.048 667.256 267.261C668.708 268.455 670.498 269.051 672.625 269.051ZM723.06 216.909H738.989L755.812 257.955H756.528L773.352 216.909H789.281V278H776.753V238.237H776.246L760.436 277.702H751.905L736.095 238.088H735.588V278H723.06V216.909ZM820.565 278.895C815.852 278.895 811.795 277.94 808.395 276.031C805.014 274.102 802.409 271.378 800.579 267.858C798.75 264.318 797.835 260.132 797.835 255.3C797.835 250.587 798.75 246.45 800.579 242.891C802.409 239.331 804.984 236.557 808.305 234.568C811.646 232.58 815.564 231.585 820.058 231.585C823.081 231.585 825.895 232.072 828.5 233.047C831.125 234.001 833.412 235.443 835.36 237.372C837.329 239.301 838.86 241.727 839.954 244.651C841.048 247.554 841.595 250.955 841.595 254.852V258.342H802.906V250.467H829.633C829.633 248.638 829.235 247.017 828.44 245.605C827.645 244.193 826.541 243.089 825.129 242.294C823.737 241.479 822.116 241.071 820.267 241.071C818.338 241.071 816.627 241.518 815.136 242.413C813.664 243.288 812.511 244.472 811.676 245.963C810.841 247.435 810.413 249.075 810.393 250.885V258.372C810.393 260.639 810.811 262.598 811.646 264.249C812.501 265.899 813.704 267.172 815.255 268.067C816.806 268.962 818.646 269.409 820.774 269.409C822.186 269.409 823.478 269.21 824.652 268.812C825.825 268.415 826.829 267.818 827.664 267.023C828.5 266.227 829.136 265.253 829.574 264.099L841.326 264.875C840.73 267.699 839.507 270.165 837.657 272.273C835.828 274.361 833.461 275.991 830.558 277.165C827.674 278.318 824.343 278.895 820.565 278.895ZM862.595 251.511V278H849.887V232.182H861.998V240.266H862.535C863.549 237.601 865.25 235.493 867.636 233.942C870.022 232.371 872.916 231.585 876.316 231.585C879.498 231.585 882.272 232.281 884.639 233.673C887.005 235.065 888.845 237.054 890.157 239.639C891.47 242.205 892.126 245.267 892.126 248.827V278H879.419V251.094C879.439 248.29 878.723 246.102 877.271 244.531C875.819 242.94 873.821 242.145 871.275 242.145C869.565 242.145 868.054 242.513 866.741 243.249C865.449 243.984 864.434 245.058 863.699 246.47C862.983 247.862 862.615 249.543 862.595 251.511ZM919.025 278.746C915.545 278.746 912.393 277.851 909.569 276.061C906.765 274.251 904.538 271.597 902.887 268.097C901.256 264.577 900.441 260.261 900.441 255.151C900.441 249.901 901.286 245.536 902.977 242.055C904.667 238.555 906.914 235.94 909.718 234.21C912.542 232.46 915.634 231.585 918.995 231.585C921.56 231.585 923.698 232.023 925.408 232.898C927.138 233.753 928.531 234.827 929.585 236.119C930.658 237.392 931.474 238.645 932.031 239.878H932.418V216.909H945.096V278H932.567V270.662H932.031C931.434 271.935 930.589 273.197 929.495 274.45C928.421 275.683 927.019 276.707 925.289 277.523C923.579 278.338 921.491 278.746 919.025 278.746ZM923.052 268.634C925.1 268.634 926.83 268.077 928.242 266.963C929.674 265.83 930.768 264.249 931.523 262.22C932.299 260.192 932.687 257.815 932.687 255.091C932.687 252.366 932.309 250 931.553 247.991C930.798 245.983 929.704 244.432 928.272 243.338C926.84 242.244 925.1 241.697 923.052 241.697C920.964 241.697 919.204 242.264 917.772 243.398C916.34 244.531 915.256 246.102 914.521 248.111C913.785 250.119 913.417 252.446 913.417 255.091C913.417 257.756 913.785 260.112 914.521 262.161C915.276 264.189 916.36 265.78 917.772 266.933C919.204 268.067 920.964 268.634 923.052 268.634ZM976.424 278.895C971.711 278.895 967.654 277.94 964.254 276.031C960.873 274.102 958.268 271.378 956.439 267.858C954.609 264.318 953.694 260.132 953.694 255.3C953.694 250.587 954.609 246.45 956.439 242.891C958.268 239.331 960.843 236.557 964.164 234.568C967.505 232.58 971.423 231.585 975.917 231.585C978.94 231.585 981.754 232.072 984.359 233.047C986.984 234.001 989.271 235.443 991.22 237.372C993.189 239.301 994.72 241.727 995.814 244.651C996.907 247.554 997.454 250.955 997.454 254.852V258.342H958.765V250.467H985.493C985.493 248.638 985.095 247.017 984.299 245.605C983.504 244.193 982.4 243.089 980.988 242.294C979.596 241.479 977.975 241.071 976.126 241.071C974.197 241.071 972.487 241.518 970.995 242.413C969.524 243.288 968.37 244.472 967.535 245.963C966.7 247.435 966.272 249.075 966.252 250.885V258.372C966.252 260.639 966.67 262.598 967.505 264.249C968.36 265.899 969.564 267.172 971.115 268.067C972.666 268.962 974.505 269.409 976.633 269.409C978.045 269.409 979.338 269.21 980.511 268.812C981.684 268.415 982.689 267.818 983.524 267.023C984.359 266.227 984.995 265.253 985.433 264.099L997.186 264.875C996.589 267.699 995.366 270.165 993.517 272.273C991.687 274.361 989.321 275.991 986.417 277.165C983.534 278.318 980.203 278.895 976.424 278.895ZM1043.87 245.247L1032.24 245.963C1032.04 244.969 1031.61 244.074 1030.95 243.278C1030.3 242.463 1029.43 241.817 1028.36 241.339C1027.3 240.842 1026.04 240.594 1024.57 240.594C1022.6 240.594 1020.94 241.011 1019.59 241.847C1018.24 242.662 1017.56 243.756 1017.56 245.128C1017.56 246.222 1018 247.146 1018.87 247.902C1019.75 248.658 1021.25 249.264 1023.38 249.722L1031.67 251.392C1036.12 252.307 1039.44 253.778 1041.63 255.807C1043.82 257.835 1044.91 260.5 1044.91 263.801C1044.91 266.804 1044.03 269.439 1042.26 271.706C1040.51 273.973 1038.1 275.743 1035.04 277.016C1032 278.268 1028.49 278.895 1024.51 278.895C1018.44 278.895 1013.61 277.632 1010.01 275.107C1006.43 272.561 1004.33 269.101 1003.72 264.726L1016.22 264.07C1016.59 265.919 1017.51 267.331 1018.96 268.305C1020.41 269.26 1022.27 269.737 1024.54 269.737C1026.77 269.737 1028.56 269.31 1029.91 268.455C1031.28 267.58 1031.98 266.456 1032 265.084C1031.98 263.93 1031.49 262.986 1030.54 262.25C1029.58 261.494 1028.11 260.918 1026.12 260.52L1018.19 258.939C1013.71 258.044 1010.38 256.493 1008.19 254.286C1006.03 252.078 1004.94 249.264 1004.94 245.844C1004.94 242.901 1005.74 240.365 1007.33 238.237C1008.94 236.109 1011.2 234.469 1014.1 233.315C1017.02 232.162 1020.44 231.585 1024.36 231.585C1030.15 231.585 1034.7 232.808 1038.02 235.254C1041.36 237.7 1043.31 241.031 1043.87 245.247Z" fill="#1A1A1A"/>
<path d="M78.75 560C78.174 560 77.67 559.886 77.238 559.658C76.806 559.43 76.47 559.106 76.23 558.686C75.99 558.266 75.87 557.774 75.87 557.21V548.336H72.54V546.86H77.49V557.21C77.49 557.618 77.604 557.942 77.832 558.182C78.06 558.41 78.366 558.524 78.75 558.524H81.9V560H78.75ZM84.323 560V558.524H87.833V551.576H84.773V550.1H89.453V558.524H92.783V560H84.323ZM88.463 548.318C88.067 548.318 87.755 548.216 87.527 548.012C87.299 547.808 87.185 547.532 87.185 547.184C87.185 546.824 87.299 546.542 87.527 546.338C87.755 546.122 88.067 546.014 88.463 546.014C88.859 546.014 89.171 546.122 89.399 546.338C89.627 546.542 89.741 546.824 89.741 547.184C89.741 547.532 89.627 547.808 89.399 548.012C89.171 548.216 88.859 548.318 88.463 548.318ZM98.9859 560.144C98.1939 560.144 97.5099 559.994 96.9339 559.694C96.3579 559.394 95.9079 558.962 95.5839 558.398C95.2719 557.822 95.1159 557.144 95.1159 556.364V553.736C95.1159 552.944 95.2719 552.266 95.5839 551.702C95.9079 551.138 96.3579 550.706 96.9339 550.406C97.5099 550.106 98.1939 549.956 98.9859 549.956C99.7779 549.956 100.462 550.106 101.038 550.406C101.614 550.706 102.058 551.138 102.37 551.702C102.694 552.266 102.856 552.938 102.856 553.718V556.364C102.856 557.144 102.694 557.822 102.37 558.398C102.058 558.962 101.614 559.394 101.038 559.694C100.462 559.994 99.7779 560.144 98.9859 560.144ZM98.9859 558.704C99.6939 558.704 100.246 558.506 100.642 558.11C101.038 557.714 101.236 557.132 101.236 556.364V553.736C101.236 552.968 101.038 552.386 100.642 551.99C100.246 551.594 99.6939 551.396 98.9859 551.396C98.2899 551.396 97.7379 551.594 97.3299 551.99C96.9339 552.386 96.7359 552.968 96.7359 553.736V556.364C96.7359 557.132 96.9339 557.714 97.3299 558.11C97.7379 558.506 98.2899 558.704 98.9859 558.704ZM106.035 560V550.1H107.655V551.99H107.997L107.655 552.368C107.655 551.588 107.889 550.988 108.357 550.568C108.825 550.136 109.473 549.92 110.301 549.92C111.297 549.92 112.089 550.226 112.677 550.838C113.265 551.45 113.559 552.284 113.559 553.34V560H111.939V553.52C111.939 552.812 111.747 552.272 111.363 551.9C110.991 551.516 110.481 551.324 109.833 551.324C109.161 551.324 108.627 551.528 108.231 551.936C107.847 552.344 107.655 552.932 107.655 553.7V560H106.035ZM116.792 560V558.38L122.336 551.576H116.936V550.1H124.154V551.72L118.502 558.524H124.352V560H116.792ZM131.365 560.144C130.573 560.144 129.889 559.994 129.313 559.694C128.737 559.394 128.287 558.962 127.963 558.398C127.651 557.822 127.495 557.144 127.495 556.364V553.736C127.495 552.944 127.651 552.266 127.963 551.702C128.287 551.138 128.737 550.706 129.313 550.406C129.889 550.106 130.573 549.956 131.365 549.956C132.157 549.956 132.841 550.106 133.417 550.406C133.993 550.706 134.437 551.138 134.749 551.702C135.073 552.266 135.235 552.938 135.235 553.718V556.364C135.235 557.144 135.073 557.822 134.749 558.398C134.437 558.962 133.993 559.394 133.417 559.694C132.841 559.994 132.157 560.144 131.365 560.144ZM131.365 558.704C132.073 558.704 132.625 558.506 133.021 558.11C133.417 557.714 133.615 557.132 133.615 556.364V553.736C133.615 552.968 133.417 552.386 133.021 551.99C132.625 551.594 132.073 551.396 131.365 551.396C130.669 551.396 130.117 551.594 129.709 551.99C129.313 552.386 129.115 552.968 129.115 553.736V556.364C129.115 557.132 129.313 557.714 129.709 558.11C130.117 558.506 130.669 558.704 131.365 558.704ZM142.158 560.18C141.702 560.18 141.336 560.048 141.06 559.784C140.796 559.52 140.664 559.166 140.664 558.722C140.664 558.254 140.796 557.882 141.06 557.606C141.336 557.33 141.702 557.192 142.158 557.192C142.614 557.192 142.974 557.33 143.238 557.606C143.514 557.882 143.652 558.254 143.652 558.722C143.652 559.166 143.514 559.52 143.238 559.784C142.974 560.048 142.614 560.18 142.158 560.18ZM150.449 563.24V561.764H153.599C154.103 561.764 154.469 561.65 154.697 561.422C154.937 561.194 155.057 560.84 155.057 560.36V559.1L155.093 557.3H154.769L155.075 557.03C155.075 557.75 154.835 558.32 154.355 558.74C153.875 559.16 153.233 559.37 152.429 559.37C151.409 559.37 150.605 559.04 150.017 558.38C149.429 557.708 149.135 556.808 149.135 555.68V553.592C149.135 552.464 149.429 551.57 150.017 550.91C150.605 550.25 151.409 549.92 152.429 549.92C153.233 549.92 153.875 550.13 154.355 550.55C154.835 550.97 155.075 551.54 155.075 552.26L154.769 551.99H155.075V550.1H156.677V560.36C156.677 561.248 156.401 561.95 155.849 562.466C155.309 562.982 154.553 563.24 153.581 563.24H150.449ZM152.915 557.966C153.587 557.966 154.115 557.756 154.499 557.336C154.883 556.916 155.075 556.334 155.075 555.59V553.7C155.075 552.956 154.883 552.374 154.499 551.954C154.115 551.534 153.587 551.324 152.915 551.324C152.231 551.324 151.697 551.528 151.313 551.936C150.941 552.344 150.755 552.932 150.755 553.7V555.59C150.755 556.358 150.941 556.946 151.313 557.354C151.697 557.762 152.231 557.966 152.915 557.966ZM159.874 560V558.524H163.384V551.576H160.324V550.1H165.004V558.524H168.334V560H159.874ZM164.014 548.318C163.618 548.318 163.306 548.216 163.078 548.012C162.85 547.808 162.736 547.532 162.736 547.184C162.736 546.824 162.85 546.542 163.078 546.338C163.306 546.122 163.618 546.014 164.014 546.014C164.41 546.014 164.722 546.122 164.95 546.338C165.178 546.542 165.292 546.824 165.292 547.184C165.292 547.532 165.178 547.808 164.95 548.012C164.722 548.216 164.41 548.318 164.014 548.318ZM175.617 560C174.765 560 174.099 559.772 173.619 559.316C173.151 558.86 172.917 558.218 172.917 557.39V551.576H170.127V550.1H172.917V547.31H174.537V550.1H178.497V551.576H174.537V557.39C174.537 558.146 174.897 558.524 175.617 558.524H178.317V560H175.617ZM181.586 560V546.86H183.206V550.1V551.99H183.548L183.206 552.368C183.206 551.588 183.44 550.988 183.908 550.568C184.376 550.136 185.024 549.92 185.852 549.92C186.848 549.92 187.64 550.226 188.228 550.838C188.816 551.45 189.11 552.284 189.11 553.34V560H187.49V553.52C187.49 552.812 187.298 552.266 186.914 551.882C186.542 551.486 186.032 551.288 185.384 551.288C184.712 551.288 184.178 551.498 183.782 551.918C183.398 552.338 183.206 552.932 183.206 553.7V560H181.586ZM196.105 560.18C194.965 560.18 194.053 559.844 193.369 559.172C192.685 558.488 192.343 557.564 192.343 556.4V550.1H193.963V556.4C193.963 557.144 194.155 557.726 194.539 558.146C194.923 558.554 195.445 558.758 196.105 558.758C196.777 558.758 197.305 558.554 197.689 558.146C198.085 557.726 198.283 557.144 198.283 556.4V550.1H199.903V556.4C199.903 557.564 199.555 558.488 198.859 559.172C198.163 559.844 197.245 560.18 196.105 560.18ZM207.492 560.18C206.676 560.18 206.022 559.964 205.53 559.532C205.038 559.088 204.792 558.488 204.792 557.732L205.116 558.11H204.792V560H203.172V546.86H204.792V549.74L204.756 551.99H205.116L204.792 552.368C204.792 551.624 205.038 551.03 205.53 550.586C206.034 550.142 206.688 549.92 207.492 549.92C208.488 549.92 209.286 550.25 209.886 550.91C210.486 551.57 210.786 552.47 210.786 553.61V556.508C210.786 557.636 210.486 558.53 209.886 559.19C209.286 559.85 208.488 560.18 207.492 560.18ZM206.952 558.776C207.636 558.776 208.176 558.572 208.572 558.164C208.968 557.756 209.166 557.168 209.166 556.4V553.7C209.166 552.932 208.968 552.344 208.572 551.936C208.176 551.528 207.636 551.324 206.952 551.324C206.292 551.324 205.764 551.534 205.368 551.954C204.984 552.374 204.792 552.956 204.792 553.7V556.4C204.792 557.144 204.984 557.726 205.368 558.146C205.764 558.566 206.292 558.776 206.952 558.776ZM217.709 560.18C217.253 560.18 216.887 560.048 216.611 559.784C216.347 559.52 216.215 559.166 216.215 558.722C216.215 558.254 216.347 557.882 216.611 557.606C216.887 557.33 217.253 557.192 217.709 557.192C218.165 557.192 218.525 557.33 218.789 557.606C219.065 557.882 219.203 558.254 219.203 558.722C219.203 559.166 219.065 559.52 218.789 559.784C218.525 560.048 218.165 560.18 217.709 560.18ZM224.632 560V558.524H228.142V551.576H225.082V550.1H229.762V558.524H233.092V560H224.632ZM228.772 548.318C228.376 548.318 228.064 548.216 227.836 548.012C227.608 547.808 227.494 547.532 227.494 547.184C227.494 546.824 227.608 546.542 227.836 546.338C228.064 546.122 228.376 546.014 228.772 546.014C229.168 546.014 229.48 546.122 229.708 546.338C229.936 546.542 230.05 546.824 230.05 547.184C230.05 547.532 229.936 547.808 229.708 548.012C229.48 548.216 229.168 548.318 228.772 548.318ZM239.295 560.144C238.503 560.144 237.819 559.994 237.243 559.694C236.667 559.394 236.217 558.962 235.893 558.398C235.581 557.822 235.425 557.144 235.425 556.364V553.736C235.425 552.944 235.581 552.266 235.893 551.702C236.217 551.138 236.667 550.706 237.243 550.406C237.819 550.106 238.503 549.956 239.295 549.956C240.087 549.956 240.771 550.106 241.347 550.406C241.923 550.706 242.367 551.138 242.679 551.702C243.003 552.266 243.165 552.938 243.165 553.718V556.364C243.165 557.144 243.003 557.822 242.679 558.398C242.367 558.962 241.923 559.394 241.347 559.694C240.771 559.994 240.087 560.144 239.295 560.144ZM239.295 558.704C240.003 558.704 240.555 558.506 240.951 558.11C241.347 557.714 241.545 557.132 241.545 556.364V553.736C241.545 552.968 241.347 552.386 240.951 551.99C240.555 551.594 240.003 551.396 239.295 551.396C238.599 551.396 238.047 551.594 237.639 551.99C237.243 552.386 237.045 552.968 237.045 553.736V556.364C237.045 557.132 237.243 557.714 237.639 558.11C238.047 558.506 238.599 558.704 239.295 558.704ZM246.038 561.98L252.428 545.06H254.138L247.748 561.98H246.038ZM257.136 563.24V550.1H258.756V551.99H259.08L258.756 552.368C258.756 551.612 259.002 551.018 259.494 550.586C259.998 550.142 260.658 549.92 261.474 549.92C262.47 549.92 263.262 550.25 263.85 550.91C264.45 551.558 264.75 552.452 264.75 553.592V556.49C264.75 557.246 264.612 557.9 264.336 558.452C264.072 559.004 263.694 559.43 263.202 559.73C262.722 560.03 262.146 560.18 261.474 560.18C260.67 560.18 260.016 559.958 259.512 559.514C259.008 559.07 258.756 558.476 258.756 557.732L259.08 558.11H258.72L258.756 560.36V563.24H257.136ZM260.934 558.776C261.618 558.776 262.152 558.572 262.536 558.164C262.932 557.756 263.13 557.168 263.13 556.4V553.7C263.13 552.932 262.932 552.344 262.536 551.936C262.152 551.528 261.618 551.324 260.934 551.324C260.274 551.324 259.746 551.534 259.35 551.954C258.954 552.374 258.756 552.956 258.756 553.7V556.4C258.756 557.144 258.954 557.726 259.35 558.146C259.746 558.566 260.274 558.776 260.934 558.776ZM271.673 560.144C270.881 560.144 270.197 559.994 269.621 559.694C269.045 559.394 268.595 558.962 268.271 558.398C267.959 557.822 267.803 557.144 267.803 556.364V553.736C267.803 552.944 267.959 552.266 268.271 551.702C268.595 551.138 269.045 550.706 269.621 550.406C270.197 550.106 270.881 549.956 271.673 549.956C272.465 549.956 273.149 550.106 273.725 550.406C274.301 550.706 274.745 551.138 275.057 551.702C275.381 552.266 275.543 552.938 275.543 553.718V556.364C275.543 557.144 275.381 557.822 275.057 558.398C274.745 558.962 274.301 559.394 273.725 559.694C273.149 559.994 272.465 560.144 271.673 560.144ZM271.673 558.704C272.381 558.704 272.933 558.506 273.329 558.11C273.725 557.714 273.923 557.132 273.923 556.364V553.736C273.923 552.968 273.725 552.386 273.329 551.99C272.933 551.594 272.381 551.396 271.673 551.396C270.977 551.396 270.425 551.594 270.017 551.99C269.621 552.386 269.423 552.968 269.423 553.736V556.364C269.423 557.132 269.621 557.714 270.017 558.11C270.425 558.506 270.977 558.704 271.673 558.704ZM279.064 560V550.1H280.648V551.99H281.026L280.504 553.16C280.504 552.092 280.732 551.288 281.188 550.748C281.656 550.196 282.346 549.92 283.258 549.92C284.302 549.92 285.13 550.25 285.742 550.91C286.366 551.558 286.678 552.44 286.678 553.556V554.15H285.058V553.7C285.058 552.92 284.866 552.326 284.482 551.918C284.11 551.498 283.576 551.288 282.88 551.288C282.196 551.288 281.656 551.498 281.26 551.918C280.876 552.338 280.684 552.932 280.684 553.7V560H279.064ZM294.339 560C293.487 560 292.821 559.772 292.341 559.316C291.873 558.86 291.639 558.218 291.639 557.39V551.576H288.849V550.1H291.639V547.31H293.259V550.1H297.219V551.576H293.259V557.39C293.259 558.146 293.619 558.524 294.339 558.524H297.039V560H294.339ZM302.612 560V552.566H299.732V551.09H302.612V549.38C302.612 548.6 302.858 547.988 303.35 547.544C303.842 547.088 304.52 546.86 305.384 546.86H308.282V548.336H305.384C305.012 548.336 304.724 548.426 304.52 548.606C304.328 548.774 304.232 549.032 304.232 549.38V551.09H308.282V552.566H304.232V560H302.612ZM314.845 560.144C314.053 560.144 313.369 559.994 312.793 559.694C312.217 559.394 311.767 558.962 311.443 558.398C311.131 557.822 310.975 557.144 310.975 556.364V553.736C310.975 552.944 311.131 552.266 311.443 551.702C311.767 551.138 312.217 550.706 312.793 550.406C313.369 550.106 314.053 549.956 314.845 549.956C315.637 549.956 316.321 550.106 316.897 550.406C317.473 550.706 317.917 551.138 318.229 551.702C318.553 552.266 318.715 552.938 318.715 553.718V556.364C318.715 557.144 318.553 557.822 318.229 558.398C317.917 558.962 317.473 559.394 316.897 559.694C316.321 559.994 315.637 560.144 314.845 560.144ZM314.845 558.704C315.553 558.704 316.105 558.506 316.501 558.11C316.897 557.714 317.095 557.132 317.095 556.364V553.736C317.095 552.968 316.897 552.386 316.501 551.99C316.105 551.594 315.553 551.396 314.845 551.396C314.149 551.396 313.597 551.594 313.189 551.99C312.793 552.386 312.595 552.968 312.595 553.736V556.364C312.595 557.132 312.793 557.714 313.189 558.11C313.597 558.506 314.149 558.704 314.845 558.704ZM326.988 560C326.412 560 325.908 559.886 325.476 559.658C325.044 559.43 324.708 559.106 324.468 558.686C324.228 558.266 324.108 557.774 324.108 557.21V548.336H320.778V546.86H325.728V557.21C325.728 557.618 325.842 557.942 326.07 558.182C326.298 558.41 326.604 558.524 326.988 558.524H330.138V560H326.988ZM332.561 560V558.524H336.071V551.576H333.011V550.1H337.691V558.524H341.021V560H332.561ZM336.701 548.318C336.305 548.318 335.993 548.216 335.765 548.012C335.537 547.808 335.423 547.532 335.423 547.184C335.423 546.824 335.537 546.542 335.765 546.338C335.993 546.122 336.305 546.014 336.701 546.014C337.097 546.014 337.409 546.122 337.637 546.338C337.865 546.542 337.979 546.824 337.979 547.184C337.979 547.532 337.865 547.808 337.637 548.012C337.409 548.216 337.097 548.318 336.701 548.318ZM347.224 560.144C346.432 560.144 345.748 559.994 345.172 559.694C344.596 559.394 344.146 558.962 343.822 558.398C343.51 557.822 343.354 557.144 343.354 556.364V553.736C343.354 552.944 343.51 552.266 343.822 551.702C344.146 551.138 344.596 550.706 345.172 550.406C345.748 550.106 346.432 549.956 347.224 549.956C348.016 549.956 348.7 550.106 349.276 550.406C349.852 550.706 350.296 551.138 350.608 551.702C350.932 552.266 351.094 552.938 351.094 553.718V556.364C351.094 557.144 350.932 557.822 350.608 558.398C350.296 558.962 349.852 559.394 349.276 559.694C348.7 559.994 348.016 560.144 347.224 560.144ZM347.224 558.704C347.932 558.704 348.484 558.506 348.88 558.11C349.276 557.714 349.474 557.132 349.474 556.364V553.736C349.474 552.968 349.276 552.386 348.88 551.99C348.484 551.594 347.932 551.396 347.224 551.396C346.528 551.396 345.976 551.594 345.568 551.99C345.172 552.386 344.974 552.968 344.974 553.736V556.364C344.974 557.132 345.172 557.714 345.568 558.11C345.976 558.506 346.528 558.704 347.224 558.704Z" fill="#1D4ED8"/>
<path d="M973.865 551H972.28C972.186 550.544 972.022 550.143 971.788 549.798C971.558 549.453 971.277 549.163 970.944 548.929C970.616 548.69 970.252 548.511 969.851 548.392C969.451 548.273 969.033 548.213 968.598 548.213C967.806 548.213 967.088 548.413 966.444 548.814C965.805 549.214 965.296 549.805 964.917 550.585C964.542 551.364 964.354 552.321 964.354 553.455C964.354 554.588 964.542 555.545 964.917 556.325C965.296 557.104 965.805 557.695 966.444 558.095C967.088 558.496 967.806 558.696 968.598 558.696C969.033 558.696 969.451 558.636 969.851 558.517C970.252 558.398 970.616 558.221 970.944 557.987C971.277 557.748 971.558 557.456 971.788 557.111C972.022 556.761 972.186 556.361 972.28 555.909H973.865C973.746 556.578 973.529 557.177 973.213 557.705C972.898 558.234 972.506 558.683 972.037 559.054C971.569 559.42 971.042 559.7 970.458 559.891C969.879 560.083 969.259 560.179 968.598 560.179C967.482 560.179 966.489 559.906 965.62 559.361C964.75 558.815 964.066 558.04 963.568 557.034C963.069 556.028 962.82 554.835 962.82 553.455C962.82 552.074 963.069 550.881 963.568 549.875C964.066 548.869 964.75 548.094 965.62 547.548C966.489 547.003 967.482 546.73 968.598 546.73C969.259 546.73 969.879 546.826 970.458 547.018C971.042 547.21 971.569 547.491 972.037 547.862C972.506 548.228 972.898 548.675 973.213 549.204C973.529 549.728 973.746 550.327 973.865 551ZM982.41 555.986V550.182H983.919V560H982.41V558.338H982.308C982.078 558.837 981.72 559.261 981.234 559.61C980.748 559.955 980.134 560.128 979.393 560.128C978.779 560.128 978.234 559.994 977.757 559.725C977.279 559.452 976.904 559.043 976.632 558.498C976.359 557.948 976.222 557.256 976.222 556.42V550.182H977.731V556.318C977.731 557.034 977.931 557.605 978.332 558.031C978.737 558.457 979.252 558.67 979.879 558.67C980.254 558.67 980.635 558.575 981.023 558.383C981.415 558.191 981.743 557.897 982.007 557.501C982.276 557.104 982.41 556.599 982.41 555.986ZM986.681 560V550.182H988.139V551.665H988.241C988.42 551.179 988.744 550.785 989.213 550.482C989.681 550.18 990.21 550.028 990.798 550.028C990.909 550.028 991.047 550.031 991.213 550.035C991.38 550.039 991.505 550.045 991.591 550.054V551.588C991.539 551.575 991.422 551.556 991.239 551.531C991.06 551.501 990.87 551.486 990.67 551.486C990.193 551.486 989.767 551.586 989.392 551.786C989.021 551.982 988.727 552.255 988.51 552.604C988.297 552.95 988.19 553.344 988.19 553.787V560H986.681ZM993.379 560V550.182H994.887V560H993.379ZM994.146 548.545C993.852 548.545 993.598 548.445 993.385 548.245C993.176 548.045 993.072 547.804 993.072 547.523C993.072 547.241 993.176 547.001 993.385 546.8C993.598 546.6 993.852 546.5 994.146 546.5C994.44 546.5 994.691 546.6 994.9 546.8C995.113 547.001 995.22 547.241 995.22 547.523C995.22 547.804 995.113 548.045 994.9 548.245C994.691 548.445 994.44 548.545 994.146 548.545ZM1001.92 550.182V551.46H996.832V550.182H1001.92ZM998.315 547.83H999.824V557.188C999.824 557.614 999.885 557.933 1000.01 558.146C1000.14 558.355 1000.3 558.496 1000.49 558.568C1000.69 558.636 1000.91 558.67 1001.13 558.67C1001.29 558.67 1001.43 558.662 1001.54 558.645C1001.64 558.624 1001.73 558.607 1001.79 558.594L1002.1 559.949C1002 559.987 1001.85 560.026 1001.67 560.064C1001.49 560.107 1001.26 560.128 1000.97 560.128C1000.55 560.128 1000.13 560.036 999.721 559.853C999.316 559.67 998.98 559.391 998.711 559.016C998.447 558.641 998.315 558.168 998.315 557.597V547.83ZM1004.19 560V550.182H1005.7V560H1004.19ZM1004.96 548.545C1004.66 548.545 1004.41 548.445 1004.2 548.245C1003.99 548.045 1003.88 547.804 1003.88 547.523C1003.88 547.241 1003.99 547.001 1004.2 546.8C1004.41 546.6 1004.66 546.5 1004.96 546.5C1005.25 546.5 1005.5 546.6 1005.71 546.8C1005.92 547.001 1006.03 547.241 1006.03 547.523C1006.03 547.804 1005.92 548.045 1005.71 548.245C1005.5 548.445 1005.25 548.545 1004.96 548.545ZM1008.67 560V546.909H1010.17V551.741H1010.3C1010.41 551.571 1010.57 551.354 1010.76 551.089C1010.96 550.821 1011.25 550.582 1011.62 550.374C1011.99 550.161 1012.5 550.054 1013.14 550.054C1013.97 550.054 1014.7 550.261 1015.33 550.674C1015.96 551.087 1016.45 551.673 1016.8 552.432C1017.16 553.19 1017.33 554.085 1017.33 555.116C1017.33 556.156 1017.16 557.058 1016.8 557.82C1016.45 558.579 1015.96 559.167 1015.33 559.585C1014.71 559.998 1013.98 560.205 1013.17 560.205C1012.53 560.205 1012.03 560.1 1011.65 559.891C1011.27 559.678 1010.98 559.437 1010.77 559.169C1010.57 558.896 1010.41 558.67 1010.3 558.491H1010.12V560H1008.67ZM1010.15 555.091C1010.15 555.832 1010.26 556.487 1010.47 557.053C1010.69 557.616 1011.01 558.057 1011.43 558.376C1011.84 558.692 1012.36 558.849 1012.96 558.849C1013.59 558.849 1014.12 558.683 1014.54 558.351C1014.97 558.014 1015.29 557.562 1015.5 556.996C1015.72 556.425 1015.82 555.79 1015.82 555.091C1015.82 554.401 1015.72 553.778 1015.5 553.224C1015.3 552.666 1014.98 552.225 1014.55 551.901C1014.13 551.573 1013.6 551.409 1012.96 551.409C1012.35 551.409 1011.83 551.565 1011.41 551.876C1011 552.183 1010.68 552.613 1010.47 553.167C1010.25 553.717 1010.15 554.358 1010.15 555.091ZM1022.53 560.23C1021.91 560.23 1021.34 560.113 1020.84 559.879C1020.33 559.64 1019.93 559.297 1019.63 558.849C1019.33 558.398 1019.18 557.852 1019.18 557.213C1019.18 556.651 1019.29 556.195 1019.51 555.845C1019.73 555.491 1020.03 555.214 1020.4 555.014C1020.77 554.814 1021.18 554.665 1021.63 554.567C1022.08 554.464 1022.53 554.384 1022.99 554.324C1023.59 554.247 1024.07 554.19 1024.44 554.151C1024.82 554.109 1025.09 554.038 1025.26 553.94C1025.43 553.842 1025.52 553.672 1025.52 553.429V553.378C1025.52 552.747 1025.35 552.257 1025 551.908C1024.66 551.558 1024.14 551.384 1023.45 551.384C1022.73 551.384 1022.17 551.541 1021.76 551.857C1021.35 552.172 1021.06 552.509 1020.89 552.866L1019.46 552.355C1019.72 551.759 1020.06 551.294 1020.48 550.962C1020.91 550.625 1021.38 550.391 1021.89 550.259C1022.4 550.122 1022.9 550.054 1023.4 550.054C1023.71 550.054 1024.08 550.092 1024.49 550.169C1024.9 550.241 1025.3 550.393 1025.68 550.623C1026.07 550.853 1026.39 551.2 1026.65 551.665C1026.9 552.129 1027.03 552.751 1027.03 553.531V560H1025.52V558.67H1025.44C1025.34 558.884 1025.17 559.112 1024.93 559.354C1024.69 559.597 1024.38 559.804 1023.98 559.974C1023.58 560.145 1023.1 560.23 1022.53 560.23ZM1022.76 558.875C1023.36 558.875 1023.86 558.758 1024.27 558.523C1024.68 558.289 1024.99 557.987 1025.2 557.616C1025.41 557.245 1025.52 556.855 1025.52 556.446V555.065C1025.46 555.142 1025.32 555.212 1025.1 555.276C1024.89 555.336 1024.64 555.389 1024.36 555.436C1024.08 555.479 1023.81 555.517 1023.55 555.551C1023.29 555.581 1023.08 555.607 1022.91 555.628C1022.52 555.679 1022.15 555.762 1021.81 555.877C1021.48 555.988 1021.2 556.156 1021 556.382C1020.79 556.604 1020.69 556.906 1020.69 557.29C1020.69 557.814 1020.88 558.21 1021.27 558.479C1021.66 558.743 1022.16 558.875 1022.76 558.875ZM1035.94 555.423C1035.63 555.423 1035.36 555.31 1035.13 555.085C1034.91 554.859 1034.79 554.588 1034.79 554.273C1034.79 553.957 1034.91 553.687 1035.13 553.461C1035.36 553.235 1035.63 553.122 1035.94 553.122C1036.26 553.122 1036.53 553.235 1036.76 553.461C1036.98 553.687 1037.1 553.957 1037.1 554.273C1037.1 554.482 1037.04 554.673 1036.94 554.848C1036.83 555.023 1036.69 555.163 1036.52 555.27C1036.35 555.372 1036.16 555.423 1035.94 555.423ZM1045.07 560V546.909H1049.49C1050.52 546.909 1051.36 547.094 1052.01 547.465C1052.67 547.832 1053.15 548.328 1053.47 548.955C1053.78 549.581 1053.94 550.28 1053.94 551.051C1053.94 551.822 1053.78 552.523 1053.47 553.154C1053.16 553.785 1052.68 554.288 1052.02 554.663C1051.37 555.033 1050.54 555.219 1049.52 555.219H1046.35V553.812H1049.47C1050.17 553.812 1050.74 553.691 1051.16 553.448C1051.59 553.205 1051.9 552.877 1052.09 552.464C1052.28 552.046 1052.38 551.575 1052.38 551.051C1052.38 550.527 1052.28 550.058 1052.09 549.645C1051.9 549.232 1051.59 548.908 1051.15 548.673C1050.72 548.435 1050.15 548.315 1049.44 548.315H1046.65V560H1045.07ZM1056.5 560V546.909H1060.92C1061.94 546.909 1062.78 547.084 1063.44 547.433C1064.09 547.778 1064.58 548.254 1064.89 548.859C1065.21 549.464 1065.37 550.152 1065.37 550.923C1065.37 551.695 1065.21 552.379 1064.89 552.975C1064.58 553.572 1064.1 554.04 1063.44 554.381C1062.79 554.718 1061.96 554.886 1060.94 554.886H1057.36V553.455H1060.89C1061.59 553.455 1062.15 553.352 1062.58 553.148C1063.01 552.943 1063.32 552.653 1063.51 552.278C1063.71 551.899 1063.81 551.447 1063.81 550.923C1063.81 550.399 1063.71 549.941 1063.51 549.549C1063.32 549.157 1063 548.854 1062.57 548.641C1062.14 548.424 1061.57 548.315 1060.87 548.315H1058.08V560H1056.5ZM1062.66 554.119L1065.88 560H1064.04L1060.87 554.119H1062.66ZM1073.97 555.423C1073.65 555.423 1073.38 555.31 1073.15 555.085C1072.93 554.859 1072.82 554.588 1072.82 554.273C1072.82 553.957 1072.93 553.687 1073.15 553.461C1073.38 553.235 1073.65 553.122 1073.97 553.122C1074.28 553.122 1074.55 553.235 1074.78 553.461C1075 553.687 1075.12 553.957 1075.12 554.273C1075.12 554.482 1075.06 554.673 1074.96 554.848C1074.85 555.023 1074.72 555.163 1074.54 555.27C1074.37 555.372 1074.18 555.423 1073.97 555.423ZM1083.09 560V546.909H1087.67C1088.58 546.909 1089.33 547.067 1089.92 547.382C1090.52 547.693 1090.96 548.113 1091.25 548.641C1091.54 549.165 1091.68 549.747 1091.68 550.386C1091.68 550.949 1091.58 551.413 1091.38 551.78C1091.19 552.146 1090.93 552.436 1090.6 552.649C1090.28 552.862 1089.93 553.02 1089.56 553.122V553.25C1089.96 553.276 1090.36 553.416 1090.77 553.672C1091.17 553.928 1091.51 554.294 1091.78 554.771C1092.06 555.249 1092.19 555.832 1092.19 556.523C1092.19 557.179 1092.04 557.769 1091.75 558.293C1091.45 558.817 1090.98 559.233 1090.33 559.54C1089.69 559.847 1088.85 560 1087.82 560H1083.09ZM1084.68 558.594H1087.82C1088.86 558.594 1089.59 558.393 1090.03 557.993C1090.47 557.588 1090.68 557.098 1090.68 556.523C1090.68 556.08 1090.57 555.67 1090.35 555.295C1090.12 554.916 1089.8 554.614 1089.38 554.388C1088.96 554.158 1088.47 554.043 1087.9 554.043H1084.68V558.594ZM1084.68 552.662H1087.62C1088.09 552.662 1088.52 552.568 1088.91 552.381C1089.3 552.193 1089.6 551.929 1089.83 551.588C1090.06 551.247 1090.17 550.847 1090.17 550.386C1090.17 549.811 1089.97 549.323 1089.57 548.923C1089.17 548.518 1088.54 548.315 1087.67 548.315H1084.68V552.662ZM1094.59 560V550.182H1096.05V551.665H1096.15C1096.33 551.179 1096.66 550.785 1097.12 550.482C1097.59 550.18 1098.12 550.028 1098.71 550.028C1098.82 550.028 1098.96 550.031 1099.13 550.035C1099.29 550.039 1099.42 550.045 1099.5 550.054V551.588C1099.45 551.575 1099.33 551.556 1099.15 551.531C1098.97 551.501 1098.78 551.486 1098.58 551.486C1098.1 551.486 1097.68 551.586 1097.3 551.786C1096.93 551.982 1096.64 552.255 1096.42 552.604C1096.21 552.95 1096.1 553.344 1096.1 553.787V560H1094.59ZM1104.18 560.23C1103.56 560.23 1102.99 560.113 1102.49 559.879C1101.98 559.64 1101.58 559.297 1101.28 558.849C1100.98 558.398 1100.83 557.852 1100.83 557.213C1100.83 556.651 1100.94 556.195 1101.16 555.845C1101.38 555.491 1101.68 555.214 1102.05 555.014C1102.42 554.814 1102.83 554.665 1103.28 554.567C1103.73 554.464 1104.18 554.384 1104.64 554.324C1105.24 554.247 1105.72 554.19 1106.09 554.151C1106.47 554.109 1106.74 554.038 1106.91 553.94C1107.08 553.842 1107.17 553.672 1107.17 553.429V553.378C1107.17 552.747 1107 552.257 1106.65 551.908C1106.31 551.558 1105.8 551.384 1105.1 551.384C1104.38 551.384 1103.82 551.541 1103.41 551.857C1103 552.172 1102.71 552.509 1102.54 552.866L1101.11 552.355C1101.37 551.759 1101.71 551.294 1102.13 550.962C1102.56 550.625 1103.03 550.391 1103.54 550.259C1104.05 550.122 1104.56 550.054 1105.05 550.054C1105.36 550.054 1105.73 550.092 1106.14 550.169C1106.55 550.241 1106.95 550.393 1107.33 550.623C1107.72 550.853 1108.04 551.2 1108.3 551.665C1108.55 552.129 1108.68 552.751 1108.68 553.531V560H1107.17V558.67H1107.09C1106.99 558.884 1106.82 559.112 1106.58 559.354C1106.34 559.597 1106.03 559.804 1105.63 559.974C1105.23 560.145 1104.75 560.23 1104.18 560.23ZM1104.41 558.875C1105.01 558.875 1105.51 558.758 1105.92 558.523C1106.33 558.289 1106.64 557.987 1106.85 557.616C1107.06 557.245 1107.17 556.855 1107.17 556.446V555.065C1107.11 555.142 1106.97 555.212 1106.75 555.276C1106.54 555.336 1106.29 555.389 1106.01 555.436C1105.73 555.479 1105.46 555.517 1105.2 555.551C1104.94 555.581 1104.73 555.607 1104.56 555.628C1104.17 555.679 1103.81 555.762 1103.46 555.877C1103.13 555.988 1102.85 556.156 1102.65 556.382C1102.44 556.604 1102.34 556.906 1102.34 557.29C1102.34 557.814 1102.53 558.21 1102.92 558.479C1103.31 558.743 1103.81 558.875 1104.41 558.875ZM1118.39 552.381L1117.03 552.764C1116.95 552.538 1116.82 552.319 1116.66 552.106C1116.49 551.888 1116.27 551.71 1115.99 551.569C1115.71 551.428 1115.35 551.358 1114.91 551.358C1114.31 551.358 1113.81 551.496 1113.41 551.773C1113.01 552.046 1112.81 552.393 1112.81 552.815C1112.81 553.19 1112.95 553.487 1113.22 553.704C1113.5 553.921 1113.92 554.102 1114.5 554.247L1115.96 554.605C1116.84 554.818 1117.49 555.144 1117.92 555.583C1118.35 556.018 1118.57 556.578 1118.57 557.264C1118.57 557.827 1118.41 558.33 1118.08 558.773C1117.76 559.216 1117.31 559.565 1116.74 559.821C1116.16 560.077 1115.49 560.205 1114.73 560.205C1113.73 560.205 1112.9 559.987 1112.25 559.553C1111.59 559.118 1111.17 558.483 1111 557.648L1112.43 557.29C1112.57 557.818 1112.82 558.214 1113.2 558.479C1113.59 558.743 1114.09 558.875 1114.71 558.875C1115.41 558.875 1115.97 558.726 1116.38 558.428C1116.8 558.125 1117.01 557.763 1117.01 557.341C1117.01 557 1116.89 556.714 1116.65 556.484C1116.41 556.25 1116.04 556.075 1115.55 555.96L1113.91 555.577C1113.01 555.364 1112.35 555.033 1111.93 554.586C1111.51 554.134 1111.31 553.57 1111.31 552.892C1111.31 552.338 1111.46 551.848 1111.77 551.422C1112.09 550.996 1112.52 550.661 1113.06 550.418C1113.6 550.175 1114.22 550.054 1114.91 550.054C1115.88 550.054 1116.65 550.267 1117.2 550.693C1117.76 551.119 1118.15 551.682 1118.39 552.381ZM1120.84 560V550.182H1122.35V560H1120.84ZM1121.6 548.545C1121.31 548.545 1121.06 548.445 1120.84 548.245C1120.64 548.045 1120.53 547.804 1120.53 547.523C1120.53 547.241 1120.64 547.001 1120.84 546.8C1121.06 546.6 1121.31 546.5 1121.6 546.5C1121.9 546.5 1122.15 546.6 1122.36 546.8C1122.57 547.001 1122.68 547.241 1122.68 547.523C1122.68 547.804 1122.57 548.045 1122.36 548.245C1122.15 548.445 1121.9 548.545 1121.6 548.545ZM1126.62 546.909V560H1125.11V546.909H1126.62Z" fill="#6B6B6B"/>
</g>
<defs>
<linearGradient id="paint0_linear_40000015_3296" x1="0" y1="0" x2="518.569" y2="987.751" gradientUnits="userSpaceOnUse">
<stop stop-color="white"/>
<stop offset="1" stop-color="#F4F6FB"/>
</linearGradient>
<clipPath id="clip0_40000015_3296">
<rect width="1200" height="630" fill="white"/>
</clipPath>
</defs>
</svg>
